# xmcd
#
# Track frame offsets:
#	150
#	23100
#	42656
#	66206
#	88124
#	109874
#	132153
#	162037
#	190034
#	214519
#	237324
#	260875
#
# Disc length: 3828 seconds
#
# Revision: 0
# Processed by: cddbd v1.5.1PL2 Copyright (c) Steve Scherf et al.
# Submitted via: EasyCDDAExtractor 9.0.0.1
#
DISCID=a80ef20c
DTITLE=Abdu Kiar - Love in Amharic
DYEAR=2006
DGENRE=Ethiopian
TTITLE0=Gize Geta
TTITLE1=Fikir B Amaringa
TTITLE2=Ylungita Motowal
TTITLE3=Kere Duro
TTITLE4=Yechalal
TTITLE5=Eskmeche
TTITLE6=Ykedama Inatun
TTITLE7=Ete Mete
TTITLE8=Lela Lalay
TTITLE9=Endi New Way
TTITLE10=Enkuwan Begura
TTITLE11=Alef Belo
EXTD=
EXTT0=
EXTT1=
EXTT2=
EXTT3=
EXTT4=
EXTT5=
EXTT6=
EXTT7=
EXTT8=
EXTT9=
EXTT10=
EXTT11=
PLAYORDER=
